<?xml version="1.0" encoding="UTF-8" standalone="no"?>
<!-- Created with Inkscape (http://www.inkscape.org/) -->

<svg
   width="105mm"
   height="93.500793mm"
   viewBox="0 0 105 93.500794"
   version="1.1"
   id="svg1"
   xml:space="preserve"
   inkscape:version="1.3.1 (91b66b0783, 2023-11-16)"
   sodipodi:docname="3.svg.svg.2024_09_10_20_19_46.0.svg"
   xmlns:inkscape="http://www.inkscape.org/namespaces/inkscape"
   xmlns:sodipodi="http://sodipodi.sourceforge.net/DTD/sodipodi-0.dtd"
   xmlns="http://www.w3.org/2000/svg"
   xmlns:svg="http://www.w3.org/2000/svg"><sodipodi:namedview
     id="namedview1"
     pagecolor="#ffffff"
     bordercolor="#000000"
     borderopacity="0.25"
     inkscape:showpageshadow="2"
     inkscape:pageopacity="0.0"
     inkscape:pagecheckerboard="0"
     inkscape:deskcolor="#d1d1d1"
     inkscape:document-units="mm"
     inkscape:zoom="0.74564394"
     inkscape:cx="-200.49784"
     inkscape:cy="212.56795"
     inkscape:window-width="1920"
     inkscape:window-height="1051"
     inkscape:window-x="-9"
     inkscape:window-y="-9"
     inkscape:window-maximized="1"
     inkscape:current-layer="layer1" /><defs
     id="defs1"><inkscape:path-effect
       effect="powerclip"
       id="path-effect26"
       is_visible="true"
       lpeversion="1"
       inverse="true"
       flatten="false"
       hide_clip="false"
       message="Utilise la règle de remplissage « fill-rule: evenodd » de la boîte de dialogue &lt;b&gt;Fond et contour&lt;/b&gt; en l'absence de résultat de mise à plat après une conversion en chemin." /><inkscape:path-effect
       effect="powerclip"
       id="path-effect25"
       is_visible="true"
       lpeversion="1"
       inverse="true"
       flatten="false"
       hide_clip="false"
       message="Utilise la règle de remplissage « fill-rule: evenodd » de la boîte de dialogue &lt;b&gt;Fond et contour&lt;/b&gt; en l'absence de résultat de mise à plat après une conversion en chemin." /><inkscape:path-effect
       effect="powerclip"
       id="path-effect24"
       is_visible="true"
       lpeversion="1"
       inverse="true"
       flatten="false"
       hide_clip="false"
       message="Utilise la règle de remplissage « fill-rule: evenodd » de la boîte de dialogue &lt;b&gt;Fond et contour&lt;/b&gt; en l'absence de résultat de mise à plat après une conversion en chemin." /><inkscape:path-effect
       effect="powerclip"
       id="path-effect23"
       is_visible="true"
       lpeversion="1"
       inverse="true"
       flatten="false"
       hide_clip="false"
       message="Utilise la règle de remplissage « fill-rule: evenodd » de la boîte de dialogue &lt;b&gt;Fond et contour&lt;/b&gt; en l'absence de résultat de mise à plat après une conversion en chemin." /><inkscape:path-effect
       effect="powerclip"
       id="path-effect22"
       is_visible="true"
       lpeversion="1"
       inverse="true"
       flatten="false"
       hide_clip="false"
       message="Utilise la règle de remplissage « fill-rule: evenodd » de la boîte de dialogue &lt;b&gt;Fond et contour&lt;/b&gt; en l'absence de résultat de mise à plat après une conversion en chemin." /><inkscape:path-effect
       effect="powerclip"
       id="path-effect16"
       is_visible="true"
       lpeversion="1"
       inverse="true"
       flatten="false"
       hide_clip="false"
       message="Utilise la règle de remplissage « fill-rule: evenodd » de la boîte de dialogue &lt;b&gt;Fond et contour&lt;/b&gt; en l'absence de résultat de mise à plat après une conversion en chemin." /><inkscape:path-effect
       effect="powerclip"
       id="path-effect13"
       is_visible="true"
       lpeversion="1"
       inverse="true"
       flatten="false"
       hide_clip="false"
       message="Utilise la règle de remplissage « fill-rule: evenodd » de la boîte de dialogue &lt;b&gt;Fond et contour&lt;/b&gt; en l'absence de résultat de mise à plat après une conversion en chemin." /><clipPath
       clipPathUnits="userSpaceOnUse"
       id="clipPath3"><rect
         style="fill:#000000;stroke-width:0.264583"
         id="rect3"
         width="116.54716"
         height="48.174503"
         x="47.576679"
         y="151.00793" /></clipPath><clipPath
       clipPathUnits="userSpaceOnUse"
       id="clipPath4"><rect
         style="fill:#000000;stroke-width:0.264583"
         id="rect5"
         width="140.50896"
         height="86.312645"
         x="-109.64078"
         y="-14.075579" /></clipPath><clipPath
       clipPathUnits="userSpaceOnUse"
       id="clipPath4-6"><rect
         style="fill:#000000;stroke-width:0.264583"
         id="rect5-8"
         width="140.50896"
         height="86.312645"
         x="-109.64078"
         y="-14.075579" /></clipPath><clipPath
       clipPathUnits="userSpaceOnUse"
       id="clipPath1"><rect
         style="fill:#000000;stroke-width:0.264583"
         id="rect2"
         width="19.516129"
         height="11.709678"
         x="-73.040588"
         y="54.191795" /></clipPath><clipPath
       clipPathUnits="userSpaceOnUse"
       id="clipPath4-66"><rect
         style="fill:#000000;stroke-width:0.264583"
         id="rect5-9"
         width="140.50896"
         height="86.312645"
         x="-109.64078"
         y="-14.075579" /></clipPath><clipPath
       clipPathUnits="userSpaceOnUse"
       id="clipPath4-66-7"><rect
         style="fill:#000000;stroke-width:0.264583"
         id="rect5-9-4"
         width="140.50896"
         height="86.312645"
         x="-109.64078"
         y="-14.075579" /></clipPath><clipPath
       clipPathUnits="userSpaceOnUse"
       id="clipPath5"><rect
         style="fill:#000000;stroke-width:0.264583"
         id="rect6"
         width="47.19355"
         height="14.193548"
         x="-99.732498"
         y="55.091808" /></clipPath><clipPath
       clipPathUnits="userSpaceOnUse"
       id="clipPath12"><rect
         style="display:none;fill:#000000;stroke-width:0.264583"
         id="rect13"
         width="50.032257"
         height="12.774194"
         x="-101.94675"
         y="54.226288" /><path
         id="lpe_path-effect13"
         style="fill:#000000;stroke-width:0.264583"
         class="powerclip"
         d="M -95.872164,-8.323109 H 20.260044 V 69.508504 H -95.872164 Z m -5.498826,156.485219 v 46.12903 H 32.04837 v -46.12903 z" /></clipPath><clipPath
       clipPathUnits="userSpaceOnUse"
       id="clipPath15"><rect
         style="display:none;fill:#000000;stroke-width:0.264583"
         id="rect16"
         width="43.290325"
         height="13.483871"
         x="-21.043522"
         y="55.290802" /><path
         id="lpe_path-effect16"
         style="fill:#000000;stroke-width:0.264583"
         class="powerclip"
         d="M -95.872164,-8.323109 H 20.260044 V 69.508504 H -95.872164 Z m -5.498826,156.485219 v 46.12903 H 32.04837 v -46.12903 z" /></clipPath><clipPath
       clipPathUnits="userSpaceOnUse"
       id="clipPath19"><rect
         style="display:none;fill:#000000;stroke-width:0.264583"
         id="rect20"
         width="47.19355"
         height="17.032263"
         x="-21.532299"
         y="129.00081" /><path
         id="lpe_path-effect22"
         style="display:block;fill:#000000;stroke-width:0.264583"
         class="powerclip"
         d="M -106.37099,143.16211 H 37.04837 v 56.12903 h -143.41936 z m 84.838691,-14.1613 v 17.03226 h 47.19355 v -17.03226 z" /></clipPath><clipPath
       clipPathUnits="userSpaceOnUse"
       id="clipPath20"><rect
         style="display:none;fill:#000000;stroke-width:0.264583"
         id="rect21"
         width="47.19355"
         height="17.032263"
         x="-21.532299"
         y="129.00081" /></clipPath><clipPath
       clipPathUnits="userSpaceOnUse"
       id="clipPath21"><rect
         style="display:none;fill:#000000;stroke-width:0.264583"
         id="rect22"
         width="47.19355"
         height="17.032263"
         x="-22.81772"
         y="52.806931" /><path
         id="lpe_path-effect24"
         style="fill:#000000;stroke-width:0.264583"
         class="powerclip"
         d="M -95.872164,-8.323109 H 20.260044 V 69.508504 H -95.872164 Z m -5.498826,156.485219 v 46.12903 H 32.04837 v -46.12903 z" /></clipPath><clipPath
       clipPathUnits="userSpaceOnUse"
       id="clipPath24"><path
         style="display:block;fill:#000000;stroke-width:0.264583"
         id="path24"
         width="133.41936"
         height="46.129032"
         x="-101.37099"
         y="148.16211"
         clip-path="url(#clipPath19)"
         inkscape:path-effect="#path-effect22"
         sodipodi:type="rect"
         d="M -101.37099,148.16211 H 32.04837 v 46.12903 h -133.41936 z" /></clipPath><clipPath
       clipPathUnits="userSpaceOnUse"
       id="clipPath25"><path
         style="display:none;fill:#000000;stroke-width:0.264583"
         id="path25"
         width="133.41936"
         height="46.129032"
         x="-101.37099"
         y="148.16211"
         clip-path="url(#clipPath19)"
         inkscape:path-effect="#path-effect22"
         sodipodi:type="rect"
         d="M -101.37099,148.16211 H 32.04837 v 46.12903 h -133.41936 z"
         transform="translate(-1.2854207,-76.19388)" /><path
         id="lpe_path-effect26"
         style="fill:#000000;stroke-width:0.264583"
         class="powerclip"
         d="M -95.872164,-8.323109 H 20.260044 V 69.508504 H -95.872164 Z m -5.498826,156.485219 v 46.12903 H 32.04837 v -46.12903 z" /></clipPath><clipPath
       clipPathUnits="userSpaceOnUse"
       id="clipPath5-8"><rect
         style="fill:#000000;stroke-width:0.264583"
         id="rect6-3"
         width="47.19355"
         height="14.193548"
         x="-99.732498"
         y="55.091808" /></clipPath></defs><g
     inkscape:label="Calque 1"
     inkscape:groupmode="layer"
     id="layer1"
     transform="translate(-49.435447,-78.258876)"><g
       id="g15"
       transform="matrix(0.81290519,0,0,0.81290519,19.869673,25.227154)"><g
         id="g14"><g
           id="g13"><g
             id="g12"><g
               id="g11"><g
                 id="g10"><g
                   id="g9"><g
                     id="g8"><g
                       id="g7"><g
                         id="g6"><path
                           style="fill:#000000"
                           d="m 58.023873,190.24926 -8.537947,-0.0453 -0.02524,-16.64739 -0.02524,-16.64738 3.127522,-0.009 3.127523,-0.009 -0.04373,13.45416 -0.04373,13.45416 6.364524,-3e-5 6.364524,-4e-5 v 3.28764 3.28763 l -0.885132,-0.0406 c -0.486823,-0.0223 -4.727209,-0.0609 -9.423079,-0.0858 z m 26.999282,-0.28425 c -5.046148,-1.07186 -8.884952,-4.09481 -11.146881,-8.77786 -1.031203,-2.13498 -1.345895,-3.61726 -1.451214,-6.83557 -0.07326,-2.23864 -0.03436,-3.07067 0.197052,-4.21491 0.616481,-3.04825 2.153925,-6.17397 4.033446,-8.20026 3.938628,-4.24617 10.180095,-6.07686 15.938222,-4.67484 1.360796,0.33133 4.160967,1.63451 5.574047,2.59411 l 1.04612,0.71041 -0.32865,0.36333 c -0.59248,0.65499 -2.98209,3.55535 -3.3508,4.06699 l -0.360564,0.50034 -1.023156,-0.7177 c -1.856744,-1.30244 -2.724468,-1.60252 -4.873619,-1.68542 -2.320082,-0.0895 -3.587226,0.13544 -5.265583,0.93476 -2.266899,1.07961 -3.902899,3.16532 -4.674368,5.95926 -0.2323,0.84129 -0.297848,1.70595 -0.293037,3.86554 0.0058,2.60844 0.03419,2.85265 0.45528,3.91773 0.681809,1.72454 1.218736,2.53204 2.4598,3.6994 1.218029,1.14568 2.45868,1.83953 4.013282,2.24445 2.753633,0.71723 6.418539,-0.16084 8.409361,-2.01478 l 0.818396,-0.76212 0.854468,0.96463 c 0.46995,0.53054 1.40694,1.54293 2.08218,2.24975 l 1.22773,1.28512 -0.68939,0.62282 c -1.42578,1.28811 -3.953288,2.65947 -6.451106,3.50021 -1.371497,0.46163 -1.819071,0.52943 -3.829083,0.58006 -1.503427,0.0379 -2.648061,-0.0217 -3.371933,-0.17545 z m 20.022485,-16.39449 -0.0438,-16.66129 2.19176,0.0408 c 1.20546,0.0225 4.0126,0.0682 6.23807,0.10154 3.4733,0.0521 4.23289,0.1114 5.36373,0.41866 4.49067,1.22017 7.2632,4.7525 6.97019,8.88037 -0.18146,2.55634 -0.90076,3.96088 -2.85035,5.56569 -0.53319,0.43889 -0.96915,0.84559 -0.96881,0.90378 3.4e-4,0.0582 0.47852,0.35289 1.06263,0.6549 3.23776,1.67404 4.63836,5.05701 3.66665,8.85633 -0.51963,2.03175 -1.10933,3.10215 -2.44044,4.42981 -1.49113,1.48726 -2.80266,2.28392 -4.74016,2.87933 l -1.51133,0.46444 -6.44719,0.0635 -6.4472,0.0634 z m 13.13114,10.1561 c 1.86806,-0.85522 2.48916,-1.82083 2.39322,-3.72068 -0.0848,-1.67996 -0.68762,-2.65913 -2.07355,-3.36832 -0.96723,-0.49494 -1.0718,-0.51063 -3.9564,-0.59366 -1.62961,-0.0469 -2.97141,-0.0848 -2.98178,-0.0843 -0.0104,5.4e-4 -0.0684,1.8977 -0.12893,4.21591 l -0.11007,4.21491 2.93565,-0.10618 c 2.70339,-0.0978 3.01367,-0.1419 3.92186,-0.55768 z m -0.58367,-13.63155 c 2.36273,-1.16028 2.82572,-4.18605 0.93017,-6.07899 -1.03348,-1.03206 -1.9888,-1.29027 -4.77375,-1.29027 h -2.2567 v 1.91239 c 0,1.05182 -0.05,2.84294 -0.11119,3.98028 l -0.11119,2.06788 2.68229,-0.0604 c 2.53199,-0.057 2.73597,-0.0868 3.64037,-0.53089 z m 27.53476,19.99153 c -2.76774,-0.38276 -6.13788,-2.10279 -8.30945,-4.2409 -1.93914,-1.90926 -3.49786,-4.54337 -4.35293,-7.3561 -0.42882,-1.41059 -0.46144,-1.73093 -0.46354,-4.55211 -0.002,-2.60423 0.0501,-3.22608 0.36698,-4.38351 0.94328,-3.44552 2.18385,-5.74011 4.2448,-7.8513 2.21966,-2.27376 4.43736,-3.56691 7.67485,-4.47525 1.47885,-0.41492 1.95749,-0.47062 3.95833,-0.46062 3.55309,0.0177 6.02868,0.80805 9.31496,2.97372 0.71864,0.47359 1.30663,0.9463 1.30663,1.05047 0,0.10417 -0.55366,0.83563 -1.23034,1.62546 -0.67669,0.78984 -1.51425,1.8638 -1.86125,2.38657 l -0.63091,0.95051 -0.9269,-0.75497 c -1.81735,-1.48025 -3.37384,-2.00328 -5.97219,-2.00684 -4.73032,-0.006 -7.95236,2.51077 -9.30609,7.27049 -0.48955,1.72126 -0.5326,4.97419 -0.0877,6.62571 0.89937,3.33853 3.21987,5.8492 6.26775,6.78143 1.66019,0.50779 4.0503,0.50144 5.98952,-0.0159 0.78673,-0.20989 1.43382,-0.39546 1.43797,-0.41237 0.004,-0.0169 -0.0206,-0.89576 -0.0551,-1.95298 l -0.0626,-1.92223 -2.34476,0.10666 -2.34475,0.10666 v -3.10106 -3.10107 l 0.66829,-0.11291 c 0.36756,-0.0621 2.83322,-0.0877 5.47926,-0.057 l 4.81097,0.0559 1.3e-4,7.09487 1.3e-4,7.09487 -1.13803,0.46818 c -4.90297,2.01707 -6.12846,2.30199 -9.72402,2.26079 -1.2123,-0.0139 -2.4318,-0.0567 -2.70998,-0.0952 z M 97.252627,145.77745 c -0.18203,-0.13966 -0.73208,-0.38036 -1.22232,-0.5349 -0.49024,-0.15453 -0.888664,-0.36195 -0.885378,-0.46092 0.01305,-0.39322 0.499808,-1.01698 2.025148,-2.59515 2.07215,-2.14393 4.038353,-4.35049 4.038353,-4.53204 0,-0.0789 -1.797843,-1.81043 -3.995203,-3.84779 -2.197353,-2.03736 -4.468395,-4.14775 -5.046753,-4.68975 l -1.051559,-0.98546 -1.093504,0.43747 c -5.380292,2.15246 -12.310401,1.62693 -17.9802,-1.36349 -2.293799,-1.20982 -4.686731,-2.80562 -6.094047,-4.06401 -3.159331,-2.825 -6.488436,-7.21803 -8.906809,-11.75329 -0.494463,-0.92728 -1.181807,-2.17911 -1.527431,-2.78184 -0.345624,-0.60273 -0.952914,-1.74076 -1.349534,-2.52895 -0.396619,-0.78819 -1.308338,-2.46411 -2.026042,-3.72428 -0.717703,-1.26016 -1.471923,-2.618563 -1.676043,-3.018673 -0.429635,-0.84215 -0.492045,-0.76655 1.264007,-1.53114 0.556369,-0.24224 2.642753,-1.2407 4.636409,-2.21881 8.083681,-3.96592 12.702331,-6.19679 12.743731,-6.15539 0.02405,0.024 0.892068,1.67119 1.928923,3.66031 1.036855,1.98911 2.381014,4.53021 2.98702,5.64688 2.455715,4.525073 3.48388,6.470693 4.753008,8.994223 1.724651,3.42929 1.668385,3.35715 2.39057,3.06506 0.827615,-0.33472 1.835022,-1.02212 1.835022,-1.25212 0,-0.10904 -0.273194,-0.64901 -0.607097,-1.19992 -0.75332,-1.24292 -2.475476,-4.46144 -6.174234,-11.538963 -1.574962,-3.01366 -2.995969,-5.707 -3.157795,-5.98518 -0.161826,-0.27818 -0.576017,-1.01978 -0.920426,-1.648 l -0.626198,-1.1422 0.642825,-0.26586 c 5.551872,-2.29608 11.336221,-5.30354 16.429613,-8.54223 0.844815,-0.53719 1.555991,-0.95447 1.58039,-0.92728 0.0244,0.0272 0.684817,1.33918 1.467594,2.91556 0.782777,1.57638 2.116593,4.08692 2.964035,5.57898 1.806825,3.18122 5.204175,10.07485 5.829598,11.82896 1.10255,3.092333 1.67157,6.511953 1.69019,10.157623 0.0127,2.49383 -0.016,2.72881 -0.62857,5.14219 -1.10504,4.35345 -3.177093,8.082 -6.073753,10.92946 l -1.513761,1.48804 4.620231,4.62253 4.620243,4.62253 4.51232,-4.5089 c 2.48177,-2.4799 4.58811,-4.53419 4.68076,-4.5651 0.3514,-0.11724 0.12724,-0.44678 -1.22757,-1.80464 -4.22798,-4.2375 -6.29158,-9.19717 -6.4862,-15.58892 -0.14616,-4.80035 0.40541,-8.27812 1.88047,-11.856793 0.41379,-1.00391 1.88404,-3.96278 3.26723,-6.57527 1.38319,-2.61249 2.80153,-5.319 3.15188,-6.01446 0.35034,-0.69546 1.07853,-2.06109 1.61821,-3.03474 0.53967,-0.97364 1.14055,-2.13064 1.33528,-2.5711 0.19473,-0.44046 0.42543,-0.80083 0.51267,-0.80083 0.0872,0 0.81697,0.48681 1.62163,1.08181 2.06351,1.52584 15.82653,8.69679 16.69152,8.69679 0.31419,0 0.28722,0.11069 -0.17732,0.72779 -0.2222,0.29518 -0.66467,1.02983 -0.98327,1.63257 -0.3186,0.60273 -1.21215,2.2339 -1.98568,3.62483 -0.77352,1.39092 -1.69495,3.09007 -2.0476,3.77588 -0.35266,0.68582 -0.75075,1.36863 -0.88464,1.51737 -0.13388,0.14874 -0.40745,0.687533 -0.60793,1.197303 -0.20048,0.50977 -0.45304,1.02866 -0.56126,1.15309 -0.10822,0.12442 -0.4623,0.74632 -0.78685,1.38199 -0.32455,0.63567 -1.06322,2.07954 -1.6415,3.20858 -1.31425,2.56599 -1.49046,3.1427 -1.0941,3.58068 0.43367,0.47919 1.68804,1.17121 1.89317,1.04444 0.0986,-0.0609 0.71724,-1.18587 1.37481,-2.49987 0.65757,-1.314 2.27555,-4.36168 3.5955,-6.77261 1.31995,-2.410933 2.78179,-5.104273 3.24853,-5.985193 0.46675,-0.88091 1.30827,-2.4278 1.87006,-3.43752 0.56179,-1.00972 1.06911,-2.05291 1.12737,-2.3182 0.11988,-0.54577 0.2045,-0.57735 0.67388,-0.25144 0.60198,0.41797 4.19223,2.2632 5.09629,2.61925 1.80696,0.71165 13.52901,6.42277 13.52901,6.59149 0,0.0601 -0.464,0.9382 -1.03111,1.951263 -0.56711,1.01306 -1.49189,2.75235 -2.05507,3.86509 -2.11448,4.17778 -5.6668,10.15541 -7.75995,13.05794 -5.21581,7.23269 -13.11039,11.78607 -20.97591,12.09835 -3.20127,0.1271 -6.28296,-0.37138 -8.58222,-1.38822 l -0.93697,-0.41438 -1.03621,0.95692 c -1.78022,1.64401 -8.70736,8.62973 -8.70736,8.781 0,0.0791 1.36564,1.55467 3.03474,3.27895 1.70757,1.764 3.03425,3.2707 3.03362,3.44524 -7.7e-4,0.21071 -0.38985,0.52193 -1.21308,0.97032 l -1.21195,0.66011 -0.93578,-1.0816 c -1.30664,-1.51026 -4.62133,-4.95844 -4.76694,-4.95893 -0.2223,-7.4e-4 -4.190373,4.53439 -4.568673,5.22155 -0.40923,0.74336 -0.85206,0.90641 -1.37406,0.50594 z m -6.962779,-21.40179 c 0.163014,-0.85276 -1.080489,-2.111 -2.087676,-2.11242 -0.562464,-7.9e-4 -1.49305,0.84613 -1.49305,1.35882 0,0.56996 0.798071,1.82153 1.391701,2.18254 l 0.52212,0.31752 0.793528,-0.66438 c 0.43644,-0.36541 0.82946,-0.85235 0.873377,-1.08208 z m 28.295772,0.78954 c 1.02101,-1.02102 1.1875,-1.58434 0.64113,-2.16926 -0.5513,-0.59018 -1.29167,-0.94741 -1.73367,-0.83648 -0.49867,0.12516 -1.56172,1.20977 -1.69114,1.72544 -0.14027,0.55888 0.31056,1.28715 1.06916,1.7271 0.3338,0.1936 0.67465,0.35373 0.75745,0.35586 0.0828,0.002 0.51347,-0.35907 0.95707,-0.80266 z M 82.7471,119.03879 c 2.787442,-0.68481 5.958026,-2.74422 7.932224,-5.15228 1.663795,-2.02944 3.01633,-5.7683 3.224095,-8.91247 0.124673,-1.88673 -0.0161,-2.10005 -1.385868,-2.10005 -1.159223,0 -1.350047,0.27143 -1.481641,2.10746 -0.125551,1.75173 -0.918282,4.30226 -1.695212,5.45419 -0.334629,0.49614 -0.608416,0.99702 -0.608416,1.11307 0,0.11604 -0.658399,0.87236 -1.463108,1.6807 -1.265776,1.27148 -1.703501,1.58751 -3.245486,2.34316 l -1.782378,0.87345 -2.221843,0.055 c -2.575525,0.0637 -3.677279,-0.14935 -5.578775,-1.07899 -0.673942,-0.32949 -1.698166,-0.99776 -2.276055,-1.48504 -1.430427,-1.20616 -1.554203,-1.2361 -2.246892,-0.54341 -1.005403,1.00541 -0.799883,1.67713 0.896815,2.93116 3.88802,2.87363 7.72793,3.74702 11.93254,2.71406 z m 46.05684,0.17735 c 3.39372,-0.46402 8.0904,-2.80832 8.66754,-4.32632 0.20069,-0.52784 -0.22282,-1.28536 -0.98112,-1.75493 -0.60018,-0.37165 -0.60068,-0.37149 -1.80551,0.57572 -1.08316,0.85154 -2.10285,1.35949 -4.01632,2.00067 -1.30783,0.43824 -1.82747,0.52386 -3.24331,0.53439 -1.52243,0.0113 -1.86587,-0.0486 -3.54053,-0.61789 -2.46434,-0.83771 -3.78549,-1.64918 -5.34842,-3.28508 -0.96641,-1.01153 -1.45496,-1.6989 -1.95671,-2.75302 -0.91991,-1.93262 -1.11917,-2.92454 -1.1997,-5.97209 -0.0115,-0.43618 -0.64098,-0.7436 -1.52257,-0.7436 -1.01962,0 -1.18428,0.28396 -1.18428,2.04231 0,3.71713 1.67051,7.68519 4.18254,9.93501 2.46872,2.21104 6.13794,3.92882 9.47379,4.43525 0.79172,0.12019 1.15644,0.10982 2.4746,-0.0704 z m 18.67472,-11.49036 c 0.33135,-0.47307 0.33356,-1.5337 0.007,-3.40574 -0.58358,-3.34649 -2.1562,-5.311083 -4.93961,-6.170793 -1.28864,-0.39802 -2.31998,-0.42126 -3.62378,-0.0817 -1.3868,0.36122 -2.53297,0.99014 -3.13457,1.71998 -0.82235,0.997663 -0.69606,1.379273 0.79573,2.404463 l 0.5599,0.38477 0.74049,-0.53178 c 1.66909,-1.19866 3.25873,-1.37415 4.74188,-0.52351 1.44337,0.82782 2.08056,2.07234 2.08056,4.06356 v 1.15131 l 0.88514,0.67931 c 1.00291,0.7697 1.5072,0.85256 1.88715,0.3101 z m -86.294635,-1.10309 c 0.102242,-0.0681 0.236705,-0.54115 0.298805,-1.05115 0.358589,-2.94494 2.118237,-4.8759 4.452167,-4.8856 1.076117,-0.004 1.828071,0.28955 2.820701,1.10294 l 0.747438,0.61246 0.555377,-0.34324 c 0.305458,-0.18878 0.724363,-0.52312 0.930899,-0.74296 l 0.375521,-0.39973 -0.433968,-0.66453 c -1.010554,-1.547433 -2.741754,-2.350493 -5.067128,-2.350493 -1.509993,0 -1.57366,0.0166 -3.167637,0.82372 -2.271161,1.15007 -3.281164,2.455323 -3.886344,5.022383 -0.553485,2.34778 -0.280229,3.00682 1.244973,3.00264 0.518815,-10e-4 1.026953,-0.0583 1.129196,-0.12644 z m 65.277085,-9.147483 c 0.57353,-0.91837 0.36127,-3.54628 -0.4198,-5.19733 -0.63115,-1.33414 -1.82146,-2.45792 -3.38442,-3.19524 -1.21564,-0.57347 -1.40642,-0.61351 -2.90282,-0.60917 -1.21,0.004 -1.81169,0.0887 -2.46051,0.34824 -1.26078,0.50437 -2.40971,1.35607 -2.72706,2.02155 -0.33349,0.69935 -0.23208,0.91873 0.78607,1.70045 l 0.7088,0.54421 0.87788,-0.58288 c 0.48283,-0.32058 1.37929,-0.70661 1.99213,-0.85784 1.03771,-0.25609 1.18241,-0.25529 2.1065,0.0116 0.76635,0.22135 1.16848,0.46863 1.76634,1.08617 0.84377,0.87154 0.99589,1.32068 0.99665,2.94255 l 4.8e-4,1.03265 0.96895,0.52664 c 1.17244,0.63723 1.41501,0.67 1.69081,0.22836 z m -44.599143,-0.48359 c 0.408435,-0.15748 0.463641,-0.26707 0.463641,-0.92042 0,-1.44878 0.826508,-3.00153 2.075583,-3.89938 0.543338,-0.39056 0.88944,-0.49302 1.880219,-0.5566 1.399912,-0.0898 2.167355,0.1743 3.51819,1.2109 l 0.814423,0.62498 0.744931,-0.5572 c 1.323159,-0.98971 1.174181,-1.73448 -0.590859,-2.95384 -1.144578,-0.79071 -2.291,-1.194 -3.806078,-1.33891 -0.823108,-0.0787 -1.262878,-0.0126 -2.360354,0.35482 -2.066777,0.69194 -3.26898,1.55392 -4.092249,2.93415 -1.00459,1.68422 -1.471132,3.89757 -1.040629,4.9369 0.211136,0.50972 0.241329,0.52193 1.073394,0.43392 0.470881,-0.0498 1.064786,-0.171 1.319788,-0.26932 z M 52.868779,143.50579 c -3.119354,-0.0962 -3.297662,-0.1681 -3.281711,-1.32385 0.01876,-1.35956 -0.08655,-1.32088 3.972648,-1.45924 4.641491,-0.15822 9.631823,0.027 9.975035,0.3702 0.278838,0.27883 0.334671,1.84175 0.08018,2.24429 -0.13465,0.21298 -0.779566,0.2529 -4.085888,0.2529 -2.159301,0 -5.156418,-0.0379 -6.660259,-0.0843 z m 17.950221,0.0552 c -0.162211,-0.044 -0.34229,-0.26861 -0.400175,-0.49924 -0.136632,-0.54439 0.02495,-1.73507 0.268548,-1.97891 0.26348,-0.26374 13.008181,-0.36539 13.489882,-0.10759 0.280721,0.15024 0.339659,0.35026 0.337528,1.14552 -0.0014,0.52992 -0.07447,1.0773 -0.162336,1.21639 -0.137061,0.21697 -1.088683,0.25651 -6.699136,0.27832 -3.59666,0.014 -6.6721,-0.0105 -6.834311,-0.0545 z m 54.87773,-0.002 c -0.53417,-0.10743 -0.76882,-0.64915 -0.66813,-1.54247 0.1265,-1.1223 0.39328,-1.25827 2.26379,-1.15382 1.78141,0.0995 1.97604,0.16897 1.73495,0.61946 -0.093,0.17373 -0.16905,0.65624 -0.16905,1.07225 0,0.6916 -0.0397,0.76384 -0.46364,0.84356 -0.80285,0.15098 -2.30275,0.2405 -2.69792,0.16102 z m 18.39567,-0.016 c -2.15919,-0.0546 -2.16168,-0.0567 -1.97036,-1.69422 0.0872,-0.74636 0.17413,-0.92502 0.51266,-1.05373 0.66083,-0.25125 13.87066,-0.19391 14.37923,0.0624 0.36101,0.18194 0.42857,0.34492 0.4708,1.13567 0.0828,1.55089 0.4109,1.46619 -5.95019,1.53617 -3.06003,0.0337 -6.40899,0.0398 -7.44214,0.0137 z m -12.28071,-0.24795 c -0.0389,-0.11591 -0.0934,-0.68837 -0.12115,-1.27214 -0.0482,-1.01399 -0.0316,-1.06528 0.37108,-1.14819 0.23183,-0.0477 0.57323,-0.11847 0.75869,-0.1572 0.64975,-0.1357 2.63672,0.13829 2.89804,0.39961 0.3793,0.3793 0.19866,1.6939 -0.28676,2.08697 -0.29904,0.24215 -0.68607,0.3017 -1.96086,0.3017 -1.1205,0 -1.60912,-0.0621 -1.65904,-0.21075 z"
                           id="path1"
                           clip-path="url(#clipPath3)"
                           transform="matrix(0.57812354,0,0,0.57812354,40.78138,70.197719)" /></g></g></g></g></g></g></g></g></g></g><path
       style="fill:#000000"
       d="m -43.826879,64.195464 c -0.18203,-0.13966 -0.73208,-0.38036 -1.22232,-0.5349 -0.49024,-0.15453 -0.888664,-0.36195 -0.885378,-0.46092 0.01305,-0.39322 0.499808,-1.01698 2.025148,-2.59515 2.07215,-2.14393 4.038353,-4.35049 4.038353,-4.53204 0,-0.0789 -1.797843,-1.81043 -3.995203,-3.84779 -2.197353,-2.03736 -4.468395,-4.14775 -5.046753,-4.68975 l -1.051559,-0.98546 -1.093504,0.43747 c -5.380292,2.15246 -12.310401,1.62693 -17.9802,-1.36349 -2.293799,-1.20982 -4.686731,-2.80562 -6.094047,-4.06401 -3.159331,-2.825 -6.488436,-7.21803 -8.906809,-11.75329 -0.494463,-0.92728 -1.181807,-2.17911 -1.527431,-2.78184 -0.345624,-0.60273 -0.952914,-1.74076 -1.349534,-2.52895 -0.396619,-0.78819 -1.308338,-2.46411 -2.026042,-3.72428 -0.717703,-1.26016 -1.471923,-2.618563 -1.676043,-3.018673 -0.429635,-0.84215 -0.492045,-0.76655 1.264007,-1.53114 0.556369,-0.24224 2.642753,-1.2407 4.636409,-2.21881 8.083681,-3.96592 12.702331,-6.19679 12.743731,-6.15539 0.02405,0.024 0.892068,1.67119 1.928923,3.66031 1.036855,1.98911 2.381014,4.53021 2.98702,5.64688 2.455715,4.525073 3.48388,6.470693 4.753008,8.994223 1.724651,3.42929 1.668385,3.35715 2.39057,3.06506 0.827615,-0.33472 1.835022,-1.02212 1.835022,-1.25212 0,-0.10904 -0.273194,-0.64901 -0.607097,-1.19992 -0.75332,-1.24292 -2.475476,-4.46144 -6.174234,-11.538963 -1.574962,-3.01366 -2.995969,-5.707 -3.157795,-5.98518 -0.161826,-0.27818 -0.576017,-1.01978 -0.920426,-1.648 l -0.626198,-1.1422 0.642825,-0.26586 c 5.551872,-2.29608 11.336221,-5.30353996 16.429613,-8.54223 0.844815,-0.53719 1.555991,-0.95447 1.58039,-0.92728 0.0244,0.0272 0.684817,1.33918 1.467594,2.91556004 0.782777,1.57637996 2.116593,4.08691996 2.964035,5.57897996 1.806825,3.18122 5.204175,10.07485 5.829598,11.82896 1.10255,3.092333 1.67157,6.511953 1.69019,10.157623 0.0127,2.49383 -0.016,2.72881 -0.62857,5.14219 -1.10504,4.35345 -3.177093,8.082 -6.073753,10.92946 l -1.513761,1.48804 4.620231,4.62253 4.620243,4.62253 4.51232,-4.5089 c 2.48177,-2.4799 4.58811,-4.53419 4.68076,-4.5651 0.3514,-0.11724 0.12724,-0.44678 -1.22757,-1.80464 -4.22798,-4.2375 -6.29158,-9.19717 -6.4862,-15.58892 -0.14616,-4.80035 0.40541,-8.27812 1.88047,-11.856793 0.41379,-1.00391 1.88404,-3.96278 3.26723,-6.57527 1.38319,-2.61249 2.80153,-5.319 3.15188,-6.01446 0.35034,-0.69546 1.07853,-2.06109 1.61821,-3.03473996 0.53967,-0.97364 1.14055,-2.13064004 1.33528,-2.57110004 0.19473,-0.44046 0.42543,-0.80083 0.51267,-0.80083 0.0872,0 0.81697,0.48681 1.62163,1.08181 2.06351,1.52584004 15.8265302,8.69679 16.6915202,8.69679 0.31419,0 0.28722,0.11069 -0.17732,0.72779 -0.2222,0.29518 -0.66467,1.02983 -0.98327,1.63257 -0.3186,0.60273 -1.21215,2.2339 -1.98568,3.62483 -0.7735202,1.39092 -1.6949502,3.09007 -2.0476002,3.77588 -0.35266,0.68582 -0.75075,1.36863 -0.88464,1.51737 -0.13388,0.14874 -0.40745,0.687533 -0.60793,1.197303 -0.20048,0.50977 -0.45304,1.02866 -0.56126,1.15309 -0.10822,0.12442 -0.4623,0.74632 -0.78685,1.38199 -0.32455,0.63567 -1.06322,2.07954 -1.6415,3.20858 -1.31425,2.56599 -1.49046,3.1427 -1.0941,3.58068 0.43367,0.47919 1.68804,1.17121 1.89317,1.04444 0.0986,-0.0609 0.71724,-1.18587 1.37481,-2.49987 0.65757,-1.314 2.27555,-4.36168 3.5955,-6.77261 1.3199502,-2.410933 2.7817902,-5.104273 3.2485302,-5.985193 0.46675,-0.88091 1.30827,-2.4278 1.87006,-3.43752 0.56179,-1.00972 1.06911,-2.05291 1.12737,-2.3182 0.11988,-0.54577 0.2045,-0.57735 0.67388,-0.25144 0.60198,0.41797 4.19223001,2.2632 5.09629,2.61925 1.80696,0.71165 13.5290098,6.42277 13.5290098,6.59149 0,0.0601 -0.464,0.9382 -1.03111,1.951263 -0.56711,1.01306 -1.49189,2.75235 -2.05507,3.86509 -2.11448,4.17778 -5.6667998,10.15541 -7.7599498,13.05794 -5.21580999,7.23269 -13.11039,11.78607 -20.9759102,12.09835 -3.20127,0.1271 -6.28296,-0.37138 -8.58222,-1.38822 l -0.93697,-0.41438 -1.03621,0.95692 c -1.78022,1.64401 -8.70736,8.62973 -8.70736,8.781 0,0.0791 1.36564,1.55467 3.03474,3.27895 1.70757,1.764 3.03425,3.2707 3.03362,3.44524 -7.7e-4,0.21071 -0.38985,0.52193 -1.21308,0.97032 l -1.21195,0.66011 -0.93578,-1.0816 c -1.30664,-1.51026 -4.62133,-4.95844 -4.76694,-4.95893 -0.2223,-7.4e-4 -4.190373,4.53439 -4.568673,5.22155 -0.40923,0.74336 -0.85206,0.90641 -1.37406,0.50594 z m -6.962779,-21.40179 c 0.163014,-0.85276 -1.080489,-2.111 -2.087676,-2.11242 -0.562464,-7.9e-4 -1.49305,0.84613 -1.49305,1.35882 0,0.56996 0.798071,1.82153 1.391701,2.18254 l 0.52212,0.31752 0.793528,-0.66438 c 0.43644,-0.36541 0.82946,-0.85235 0.873377,-1.08208 z m 28.295772,0.78954 c 1.02101,-1.02102 1.1875,-1.58434 0.64113,-2.16926 -0.5513,-0.59018 -1.29167,-0.94741 -1.73367,-0.83648 -0.49867,0.12516 -1.56172,1.20977 -1.69114,1.72544 -0.14027,0.55888 0.31056,1.28715 1.06916,1.7271 0.3338,0.1936 0.67465,0.35373 0.75745,0.35586 0.0828,0.002 0.51347,-0.35907 0.95707,-0.80266 z m -35.83852,-6.12641 c 2.787442,-0.68481 5.958026,-2.74422 7.932224,-5.15228 1.663795,-2.02944 3.01633,-5.7683 3.224095,-8.91247 0.124673,-1.88673 -0.0161,-2.10005 -1.385868,-2.10005 -1.159223,0 -1.350047,0.27143 -1.481641,2.10746 -0.125551,1.75173 -0.918282,4.30226 -1.695212,5.45419 -0.334629,0.49614 -0.608416,0.99702 -0.608416,1.11307 0,0.11604 -0.658399,0.87236 -1.463108,1.6807 -1.265776,1.27148 -1.703501,1.58751 -3.245486,2.34316 l -1.782378,0.87345 -2.221843,0.055 c -2.575525,0.0637 -3.677279,-0.14935 -5.578775,-1.07899 -0.673942,-0.32949 -1.698166,-0.99776 -2.276055,-1.48504 -1.430427,-1.20616 -1.554203,-1.2361 -2.246892,-0.54341 -1.005403,1.00541 -0.799883,1.67713 0.896815,2.93116 3.88802,2.87363 7.72793,3.74702 11.93254,2.71406 z m 46.05684,0.17735 c 3.3937202,-0.46402 8.0904002,-2.80832 8.6675402,-4.32632 0.20069,-0.52784 -0.22282,-1.28536 -0.98112,-1.75493 -0.60018,-0.37165 -0.60068,-0.37149 -1.80551,0.57572 -1.08316,0.85154 -2.10285,1.35949 -4.0163202,2.00067 -1.30783,0.43824 -1.82747,0.52386 -3.24331,0.53439 -1.52243,0.0113 -1.86587,-0.0486 -3.54053,-0.61789 -2.46434,-0.83771 -3.78549,-1.64918 -5.34842,-3.28508 -0.96641,-1.01153 -1.45496,-1.6989 -1.95671,-2.75302 -0.91991,-1.93262 -1.11917,-2.92454 -1.1997,-5.97209 -0.0115,-0.43618 -0.64098,-0.7436 -1.52257,-0.7436 -1.01962,0 -1.18428,0.28396 -1.18428,2.04231 0,3.71713 1.67051,7.68519 4.18254,9.93501 2.46872,2.21104 6.13794,3.92882 9.47379,4.43525 0.79172,0.12019 1.15644,0.10982 2.4746,-0.0704 z M 6.3991542,26.143794 c 0.33135,-0.47307 0.33356,-1.5337 0.007,-3.40574 -0.58358,-3.34649 -2.1562,-5.311083 -4.93961,-6.170793 -1.28863999,-0.39802 -2.31997999,-0.42126 -3.62378,-0.0817 -1.3868,0.36122 -2.53297,0.99014 -3.13457,1.71998 -0.82235,0.997663 -0.69606,1.379273 0.79573,2.404463 l 0.5599,0.38477 0.74049,-0.53178 c 1.66909,-1.19866 3.25873001,-1.37415 4.74188,-0.52351 1.44337,0.82782 2.08056,2.07234 2.08056,4.06356 v 1.15131 l 0.88514,0.67931 c 1.00291,0.7697 1.5072,0.85256 1.88715,0.3101 z m -86.2946352,-1.10309 c 0.102242,-0.0681 0.236705,-0.54115 0.298805,-1.05115 0.358589,-2.94494 2.118237,-4.8759 4.452167,-4.8856 1.076117,-0.004 1.828071,0.28955 2.820701,1.10294 l 0.747438,0.61246 0.555377,-0.34324 c 0.305458,-0.18878 0.724363,-0.52312 0.930899,-0.74296 l 0.375521,-0.39973 -0.433968,-0.66453 c -1.010554,-1.547433 -2.741754,-2.350493 -5.067128,-2.350493 -1.509993,0 -1.57366,0.0166 -3.167637,0.82372 -2.271161,1.15007 -3.281164,2.455323 -3.886344,5.022383 -0.553485,2.34778 -0.280229,3.00682 1.244973,3.00264 0.518815,-0.001 1.026953,-0.0583 1.129196,-0.12644 z m 65.277085,-9.147483 c 0.57353,-0.91837 0.36127,-3.54628 -0.4198,-5.19733 -0.63115,-1.33414 -1.82146,-2.45792 -3.38442,-3.19524 -1.21564,-0.57347 -1.40642,-0.61351 -2.90282,-0.60917 -1.21,0.004 -1.81169,0.0887 -2.46051,0.34824 -1.26078,0.50437 -2.40971,1.35607 -2.72706,2.02155 -0.33349,0.69935 -0.23208,0.91873 0.78607,1.70045 l 0.7088,0.54421 0.87788,-0.58288 c 0.48283,-0.32058 1.37929,-0.70661 1.99213,-0.85784 1.03771,-0.25609 1.18241,-0.25529 2.1065,0.0116 0.76635,0.22135 1.16848,0.46863 1.76634,1.08617 0.84377,0.87154 0.99589,1.32068 0.99665,2.94255 l 4.8e-4,1.03265 0.96895,0.52664 c 1.17244,0.63723 1.41501,0.67 1.69081,0.22836 z m -44.599143,-0.48359 c 0.408435,-0.15748 0.463641,-0.26707 0.463641,-0.92042 0,-1.44878 0.826508,-3.00153 2.075583,-3.89938 0.543338,-0.39056 0.88944,-0.49302 1.880219,-0.5566 1.399912,-0.0898 2.167355,0.1743 3.51819,1.2109 l 0.814423,0.62498 0.744931,-0.5572 c 1.323159,-0.98971 1.174181,-1.73448 -0.590859,-2.95384 -1.144578,-0.79071 -2.291,-1.194 -3.806078,-1.33891 -0.823108,-0.0787 -1.262878,-0.0126 -2.360354,0.35482 -2.066777,0.69194 -3.26898,1.55392 -4.092249,2.93415 -1.00459,1.68422 -1.471132,3.89757 -1.040629,4.9369 0.211136,0.50972 0.241329,0.52193 1.073394,0.43392 0.470881,-0.0498 1.064786,-0.171 1.319788,-0.26932 z"
       id="path1-4-5"
       clip-path="url(#clipPath25)"
       transform="matrix(0.98871317,0,0,0.98782608,139.34764,81.54153)"
       inkscape:original-d="m -43.826879,64.195464 c -0.18203,-0.13966 -0.73208,-0.38036 -1.22232,-0.5349 -0.49024,-0.15453 -0.888664,-0.36195 -0.885378,-0.46092 0.01305,-0.39322 0.499808,-1.01698 2.025148,-2.59515 2.07215,-2.14393 4.038353,-4.35049 4.038353,-4.53204 0,-0.0789 -1.797843,-1.81043 -3.995203,-3.84779 -2.197353,-2.03736 -4.468395,-4.14775 -5.046753,-4.68975 l -1.051559,-0.98546 -1.093504,0.43747 c -5.380292,2.15246 -12.310401,1.62693 -17.9802,-1.36349 -2.293799,-1.20982 -4.686731,-2.80562 -6.094047,-4.06401 -3.159331,-2.825 -6.488436,-7.21803 -8.906809,-11.75329 -0.494463,-0.92728 -1.181807,-2.17911 -1.527431,-2.78184 -0.345624,-0.60273 -0.952914,-1.74076 -1.349534,-2.52895 -0.396619,-0.78819 -1.308338,-2.46411 -2.026042,-3.72428 -0.717703,-1.26016 -1.471923,-2.618563 -1.676043,-3.018673 -0.429635,-0.84215 -0.492045,-0.76655 1.264007,-1.53114 0.556369,-0.24224 2.642753,-1.2407 4.636409,-2.21881 8.083681,-3.96592 12.702331,-6.19679 12.743731,-6.15539 0.02405,0.024 0.892068,1.67119 1.928923,3.66031 1.036855,1.98911 2.381014,4.53021 2.98702,5.64688 2.455715,4.525073 3.48388,6.470693 4.753008,8.994223 1.724651,3.42929 1.668385,3.35715 2.39057,3.06506 0.827615,-0.33472 1.835022,-1.02212 1.835022,-1.25212 0,-0.10904 -0.273194,-0.64901 -0.607097,-1.19992 -0.75332,-1.24292 -2.475476,-4.46144 -6.174234,-11.538963 -1.574962,-3.01366 -2.995969,-5.707 -3.157795,-5.98518 -0.161826,-0.27818 -0.576017,-1.01978 -0.920426,-1.648 l -0.626198,-1.1422 0.642825,-0.26586 c 5.551872,-2.29608 11.336221,-5.30353996 16.429613,-8.54223 0.844815,-0.53719 1.555991,-0.95447 1.58039,-0.92728 0.0244,0.0272 0.684817,1.33918 1.467594,2.91556004 0.782777,1.57637996 2.116593,4.08691996 2.964035,5.57897996 1.806825,3.18122 5.204175,10.07485 5.829598,11.82896 1.10255,3.092333 1.67157,6.511953 1.69019,10.157623 0.0127,2.49383 -0.016,2.72881 -0.62857,5.14219 -1.10504,4.35345 -3.177093,8.082 -6.073753,10.92946 l -1.513761,1.48804 4.620231,4.62253 4.620243,4.62253 4.51232,-4.5089 c 2.48177,-2.4799 4.58811,-4.53419 4.68076,-4.5651 0.3514,-0.11724 0.12724,-0.44678 -1.22757,-1.80464 -4.22798,-4.2375 -6.29158,-9.19717 -6.4862,-15.58892 -0.14616,-4.80035 0.40541,-8.27812 1.88047,-11.856793 0.41379,-1.00391 1.88404,-3.96278 3.26723,-6.57527 1.38319,-2.61249 2.80153,-5.319 3.15188,-6.01446 0.35034,-0.69546 1.07853,-2.06109 1.61821,-3.03473996 0.53967,-0.97364 1.14055,-2.13064004 1.33528,-2.57110004 0.19473,-0.44046 0.42543,-0.80083 0.51267,-0.80083 0.0872,0 0.81697,0.48681 1.62163,1.08181 2.06351,1.52584004 15.8265302,8.69679 16.6915202,8.69679 0.31419,0 0.28722,0.11069 -0.17732,0.72779 -0.2222,0.29518 -0.66467,1.02983 -0.98327,1.63257 -0.3186,0.60273 -1.21215,2.2339 -1.98568,3.62483 -0.7735202,1.39092 -1.6949502,3.09007 -2.0476002,3.77588 -0.35266,0.68582 -0.75075,1.36863 -0.88464,1.51737 -0.13388,0.14874 -0.40745,0.687533 -0.60793,1.197303 -0.20048,0.50977 -0.45304,1.02866 -0.56126,1.15309 -0.10822,0.12442 -0.4623,0.74632 -0.78685,1.38199 -0.32455,0.63567 -1.06322,2.07954 -1.6415,3.20858 -1.31425,2.56599 -1.49046,3.1427 -1.0941,3.58068 0.43367,0.47919 1.68804,1.17121 1.89317,1.04444 0.0986,-0.0609 0.71724,-1.18587 1.37481,-2.49987 0.65757,-1.314 2.27555,-4.36168 3.5955,-6.77261 1.3199502,-2.410933 2.7817902,-5.104273 3.2485302,-5.985193 0.46675,-0.88091 1.30827,-2.4278 1.87006,-3.43752 0.56179,-1.00972 1.06911,-2.05291 1.12737,-2.3182 0.11988,-0.54577 0.2045,-0.57735 0.67388,-0.25144 0.60198,0.41797 4.19223001,2.2632 5.09629,2.61925 1.80696,0.71165 13.5290098,6.42277 13.5290098,6.59149 0,0.0601 -0.464,0.9382 -1.03111,1.951263 -0.56711,1.01306 -1.49189,2.75235 -2.05507,3.86509 -2.11448,4.17778 -5.6667998,10.15541 -7.7599498,13.05794 -5.21580999,7.23269 -13.11039,11.78607 -20.9759102,12.09835 -3.20127,0.1271 -6.28296,-0.37138 -8.58222,-1.38822 l -0.93697,-0.41438 -1.03621,0.95692 c -1.78022,1.64401 -8.70736,8.62973 -8.70736,8.781 0,0.0791 1.36564,1.55467 3.03474,3.27895 1.70757,1.764 3.03425,3.2707 3.03362,3.44524 -7.7e-4,0.21071 -0.38985,0.52193 -1.21308,0.97032 l -1.21195,0.66011 -0.93578,-1.0816 c -1.30664,-1.51026 -4.62133,-4.95844 -4.76694,-4.95893 -0.2223,-7.4e-4 -4.190373,4.53439 -4.568673,5.22155 -0.40923,0.74336 -0.85206,0.90641 -1.37406,0.50594 z m -6.962779,-21.40179 c 0.163014,-0.85276 -1.080489,-2.111 -2.087676,-2.11242 -0.562464,-7.9e-4 -1.49305,0.84613 -1.49305,1.35882 0,0.56996 0.798071,1.82153 1.391701,2.18254 l 0.52212,0.31752 0.793528,-0.66438 c 0.43644,-0.36541 0.82946,-0.85235 0.873377,-1.08208 z m 28.295772,0.78954 c 1.02101,-1.02102 1.1875,-1.58434 0.64113,-2.16926 -0.5513,-0.59018 -1.29167,-0.94741 -1.73367,-0.83648 -0.49867,0.12516 -1.56172,1.20977 -1.69114,1.72544 -0.14027,0.55888 0.31056,1.28715 1.06916,1.7271 0.3338,0.1936 0.67465,0.35373 0.75745,0.35586 0.0828,0.002 0.51347,-0.35907 0.95707,-0.80266 z m -35.83852,-6.12641 c 2.787442,-0.68481 5.958026,-2.74422 7.932224,-5.15228 1.663795,-2.02944 3.01633,-5.7683 3.224095,-8.91247 0.124673,-1.88673 -0.0161,-2.10005 -1.385868,-2.10005 -1.159223,0 -1.350047,0.27143 -1.481641,2.10746 -0.125551,1.75173 -0.918282,4.30226 -1.695212,5.45419 -0.334629,0.49614 -0.608416,0.99702 -0.608416,1.11307 0,0.11604 -0.658399,0.87236 -1.463108,1.6807 -1.265776,1.27148 -1.703501,1.58751 -3.245486,2.34316 l -1.782378,0.87345 -2.221843,0.055 c -2.575525,0.0637 -3.677279,-0.14935 -5.578775,-1.07899 -0.673942,-0.32949 -1.698166,-0.99776 -2.276055,-1.48504 -1.430427,-1.20616 -1.554203,-1.2361 -2.246892,-0.54341 -1.005403,1.00541 -0.799883,1.67713 0.896815,2.93116 3.88802,2.87363 7.72793,3.74702 11.93254,2.71406 z m 46.05684,0.17735 c 3.3937202,-0.46402 8.0904002,-2.80832 8.6675402,-4.32632 0.20069,-0.52784 -0.22282,-1.28536 -0.98112,-1.75493 -0.60018,-0.37165 -0.60068,-0.37149 -1.80551,0.57572 -1.08316,0.85154 -2.10285,1.35949 -4.0163202,2.00067 -1.30783,0.43824 -1.82747,0.52386 -3.24331,0.53439 -1.52243,0.0113 -1.86587,-0.0486 -3.54053,-0.61789 -2.46434,-0.83771 -3.78549,-1.64918 -5.34842,-3.28508 -0.96641,-1.01153 -1.45496,-1.6989 -1.95671,-2.75302 -0.91991,-1.93262 -1.11917,-2.92454 -1.1997,-5.97209 -0.0115,-0.43618 -0.64098,-0.7436 -1.52257,-0.7436 -1.01962,0 -1.18428,0.28396 -1.18428,2.04231 0,3.71713 1.67051,7.68519 4.18254,9.93501 2.46872,2.21104 6.13794,3.92882 9.47379,4.43525 0.79172,0.12019 1.15644,0.10982 2.4746,-0.0704 z M 6.3991542,26.143794 c 0.33135,-0.47307 0.33356,-1.5337 0.007,-3.40574 -0.58358,-3.34649 -2.1562,-5.311083 -4.93961,-6.170793 -1.28863999,-0.39802 -2.31997999,-0.42126 -3.62378,-0.0817 -1.3868,0.36122 -2.53297,0.99014 -3.13457,1.71998 -0.82235,0.997663 -0.69606,1.379273 0.79573,2.404463 l 0.5599,0.38477 0.74049,-0.53178 c 1.66909,-1.19866 3.25873001,-1.37415 4.74188,-0.52351 1.44337,0.82782 2.08056,2.07234 2.08056,4.06356 v 1.15131 l 0.88514,0.67931 c 1.00291,0.7697 1.5072,0.85256 1.88715,0.3101 z m -86.2946352,-1.10309 c 0.102242,-0.0681 0.236705,-0.54115 0.298805,-1.05115 0.358589,-2.94494 2.118237,-4.8759 4.452167,-4.8856 1.076117,-0.004 1.828071,0.28955 2.820701,1.10294 l 0.747438,0.61246 0.555377,-0.34324 c 0.305458,-0.18878 0.724363,-0.52312 0.930899,-0.74296 l 0.375521,-0.39973 -0.433968,-0.66453 c -1.010554,-1.547433 -2.741754,-2.350493 -5.067128,-2.350493 -1.509993,0 -1.57366,0.0166 -3.167637,0.82372 -2.271161,1.15007 -3.281164,2.455323 -3.886344,5.022383 -0.553485,2.34778 -0.280229,3.00682 1.244973,3.00264 0.518815,-0.001 1.026953,-0.0583 1.129196,-0.12644 z m 65.277085,-9.147483 c 0.57353,-0.91837 0.36127,-3.54628 -0.4198,-5.19733 -0.63115,-1.33414 -1.82146,-2.45792 -3.38442,-3.19524 -1.21564,-0.57347 -1.40642,-0.61351 -2.90282,-0.60917 -1.21,0.004 -1.81169,0.0887 -2.46051,0.34824 -1.26078,0.50437 -2.40971,1.35607 -2.72706,2.02155 -0.33349,0.69935 -0.23208,0.91873 0.78607,1.70045 l 0.7088,0.54421 0.87788,-0.58288 c 0.48283,-0.32058 1.37929,-0.70661 1.99213,-0.85784 1.03771,-0.25609 1.18241,-0.25529 2.1065,0.0116 0.76635,0.22135 1.16848,0.46863 1.76634,1.08617 0.84377,0.87154 0.99589,1.32068 0.99665,2.94255 l 4.8e-4,1.03265 0.96895,0.52664 c 1.17244,0.63723 1.41501,0.67 1.69081,0.22836 z m -44.599143,-0.48359 c 0.408435,-0.15748 0.463641,-0.26707 0.463641,-0.92042 0,-1.44878 0.826508,-3.00153 2.075583,-3.89938 0.543338,-0.39056 0.88944,-0.49302 1.880219,-0.5566 1.399912,-0.0898 2.167355,0.1743 3.51819,1.2109 l 0.814423,0.62498 0.744931,-0.5572 c 1.323159,-0.98971 1.174181,-1.73448 -0.590859,-2.95384 -1.144578,-0.79071 -2.291,-1.194 -3.806078,-1.33891 -0.823108,-0.0787 -1.262878,-0.0126 -2.360354,0.35482 -2.066777,0.69194 -3.26898,1.55392 -4.092249,2.93415 -1.00459,1.68422 -1.471132,3.89757 -1.040629,4.9369 0.211136,0.50972 0.241329,0.52193 1.073394,0.43392 0.470881,-0.0498 1.064786,-0.171 1.319788,-0.26932 z"
       inkscape:path-effect="#path-effect13;#path-effect16;#path-effect24;#path-effect26"
       sodipodi:nodetypes="ssssssscsssssssssscssssssssscssssssccscccsssssssssssssssssssssscsssscssssccsscssssscsssssssscsscssssccsssssssssccsssssscssssccsscssssccccscsscssscscccscscsscsscscccssccsscssssscsccssscscsscsssss" /><path
       style="fill:#000000"
       d="m -88.210727,61.923804 c -3.119354,-0.0962 -3.297662,-0.1681 -3.281711,-1.32385 0.01876,-1.35956 -0.08655,-1.32088 3.972648,-1.45924 4.641491,-0.15822 9.631823,0.027 9.975035,0.3702 0.278838,0.27883 0.334671,1.84175 0.08018,2.24429 -0.13465,0.21298 -0.779566,0.2529 -4.085888,0.2529 -2.159301,0 -5.156418,-0.0379 -6.660259,-0.0843 z m 17.950221,0.0552 c -0.162211,-0.044 -0.34229,-0.26861 -0.400175,-0.49924 -0.136632,-0.54439 0.02495,-1.73507 0.268548,-1.97891 0.26348,-0.26374 13.008181,-0.36539 13.489882,-0.10759 0.280721,0.15024 0.339659,0.35026 0.337528,1.14552 -0.0014,0.52992 -0.07447,1.0773 -0.162336,1.21639 -0.137061,0.21697 -1.088683,0.25651 -6.699136,0.27832 -3.59666,0.014 -6.6721,-0.0105 -6.834311,-0.0545 z"
       id="path1-4-5-4"
       clip-path="url(#clipPath5)"
       transform="matrix(0.96029609,0,0,0.9594345,137.29609,80.460225)"
       sodipodi:nodetypes="sssssssssssssssss" /><path
       style="fill:#000000"
       d="m -88.210727,61.923804 c -3.119354,-0.0962 -3.297662,-0.1681 -3.281711,-1.32385 0.01876,-1.35956 -0.08655,-1.32088 3.972648,-1.45924 4.641491,-0.15822 9.631823,0.027 9.975035,0.3702 0.278838,0.27883 0.334671,1.84175 0.08018,2.24429 -0.13465,0.21298 -0.779566,0.2529 -4.085888,0.2529 -2.159301,0 -5.156418,-0.0379 -6.660259,-0.0843 z m 17.950221,0.0552 c -0.162211,-0.044 -0.34229,-0.26861 -0.400175,-0.49924 -0.136632,-0.54439 0.02495,-1.73507 0.268548,-1.97891 0.26348,-0.26374 13.008181,-0.36539 13.489882,-0.10759 0.280721,0.15024 0.339659,0.35026 0.337528,1.14552 -0.0014,0.52992 -0.07447,1.0773 -0.162336,1.21639 -0.137061,0.21697 -1.088683,0.25651 -6.699136,0.27832 -3.59666,0.014 -6.6721,-0.0105 -6.834311,-0.0545 z"
       id="path1-4-5-4-1"
       clip-path="url(#clipPath5-8)"
       transform="matrix(0.96029609,0,0,0.9594345,207.21021,80.272093)"
       sodipodi:nodetypes="sssssssssssssssss" /></g></svg>
